# xmcd
#
# Track frame offsets: 
#        150
#        12381
#        24328
#        37475
#        48552
#        62722
#        76263
#        90540
#        103133
#        115377
#        128065
#        142560
#        155705
#        168860
#        183185
#        195715
#        208678
#        222309
#        237400
#        249350
#        262996
#        276957
#        291231
#        305087
#
# Disc length: 4244 seconds
#
# Revision: 0
# Processed by: cddbd v1.5.2PL0 Copyright (c) Steve Scherf et al.
# Submitted via: ExactAudioCopy v1.0b1
#
DISCID=5e109218
DTITLE=Jazz Gillum - It sure had a Kick
DYEAR=2001
DGENRE=Blues
TTITLE0=You're laughing now
TTITLE1=I'm gonna get it
TTITLE2=Let her go
TTITLE3=It sure had a kick
TTITLE4=Riley Springs blues
TTITLE5=I got somebody else
TTITLE6=Maybe you'll love me too
TTITLE7=It looks bad for you
TTITLE8=War time blues
TTITLE9=You are doing me wrong
TTITLE10=Down south blues
TTITLE11=I'm gonna leave you on the outskirts of town
TTITLE12=I couldn't help it
TTITLE13=Tell me, mama
TTITLE14=Keep on sailing
TTITLE15=Long razor blues
TTITLE16=I'm gonna train my baby
TTITLE17=I'm not the lad
TTITLE18=The blues what am
TTITLE19=Country woman blues
TTITLE20=Take a little walk with me
TTITLE21=What a gal
TTITLE22=Take one more change with me
TTITLE23=Look what you are today
EXTD=
EXTT0=
EXTT1=
EXTT2=
EXTT3=
EXTT4=
EXTT5=
EXTT6=
EXTT7=
EXTT8=
EXTT9=
EXTT10=
EXTT11=
EXTT12=
EXTT13=
EXTT14=
EXTT15=
EXTT16=
EXTT17=
EXTT18=
EXTT19=
EXTT20=
EXTT21=
EXTT22=
EXTT23=
PLAYORDER=
